<!DOCTYPE svg PUBLIC "-//W3C//DTD SVG 1.1//EN" "http://www.w3.org/Graphics/SVG/1.1/DTD/svg11.dtd">
<!-- Uploaded to: SVG Repo, www.svgrepo.com, Transformed by: SVG Repo Mixer Tools -->
<svg fill="#000000" width="191px" height="191px" viewBox="-3.2 -3.2 38.40 38.40" version="1.1" xmlns="http://www.w3.org/2000/svg" stroke="#000000" stroke-width="0.00032" transform="matrix(-1, 0, 0, 1, 0, 0)rotate(0)">
<g id="SVGRepo_bgCarrier" stroke-width="0">
<path transform="translate(-3.2, -3.2), scale(1.2)" d="M16,29.577382538467646C18.184421634140406,29.760243965729824,20.48160737516805,29.216083185594165,22.274094693366557,27.95428867325132C24.009776216820853,26.732481746510786,24.712496825167122,24.580161772229676,25.73857932904496,22.72205595922344C26.6786557438594,21.019696310330392,27.87037660963319,19.399899601442506,28.066415087718553,17.465128050333796C28.26107580389501,15.543954108080177,27.355077343559046,13.75037468817361,26.836082663724994,11.890415916286287C26.27081376013136,9.864620861796924,26.023207941638333,7.748876733250649,24.865317940986216,5.9931246771352775C23.531677709349147,3.9708759510073866,21.918739893815737,1.9859230894807864,19.685431749769286,1.0476156177516884C17.356005596137912,0.06892489358083176,14.528445817542408,-0.35506620054476,12.224496306902402,0.6821793784873229C9.9293486806418,1.7154623204835118,9.466706746787677,4.82973411272625,7.581099276855989,6.497025549124757C5.693046126177351,8.166479504833656,2.0712117683164806,8.022837444771335,1.2341573638744574,10.400054543402387C0.3902674761447963,12.796684272398378,3.131423619590379,15.018105267822405,3.7094816390821155,17.492339114212246C4.213099563819417,19.647950615163758,3.1515050902124173,22.17887991257962,4.411315531147688,23.999091331635555C5.671172363210298,25.819369777965576,8.259328207668037,25.98791445503743,10.254010543707636,26.948068212390954C12.179892528180345,27.87510445781255,13.870064177086386,29.39908220557056,16,29.577382538467646" fill="#7ed0ec" strokewidth="0"/>
</g>
<g id="SVGRepo_tracerCarrier" stroke-linecap="round" stroke-linejoin="round"/>
<g id="SVGRepo_iconCarrier"> <title>wolf-howl</title> <path d="M15.948 1.378c-7.913 0-14.327 6.414-14.327 14.327 0 1.585 0.258 3.11 0.733 4.535 2.505-1.51 4.743-2.569 6.711-3.246-2.231 0.35-4.144 1.475-6.854 0.248 1.969-1.732 5.471-4.108 8.644-4.471 1.659-1.349 4.251-2.743 5.595-2.326 1.903-1.677 4.242-3.812 6.746-5.35l0 0c0.666 1.008 1.068 2.243 0.783 3.612-5.015 1.261-3.848 9.293 0.842 4.208 0.396 0.815 0.587 1.663 0.567 2.584-2.039 2.111-4.179 3.934-6.361 5.487 0.029 1.497-0.351 3.302-1.187 5.292-0.352 0.837-0.457 2.271 1.427 3.367 6.311-1.498 11.007-7.17 11.007-13.94-0-7.913-6.415-14.327-14.327-14.327z"/> </g>
</svg>